HIERARCHY
ROOT sphere
{
	OFFSET 0.000000 0.000000 0.000000
	CHANNELS 6 Xposition Yposition Zposition Yrotation Xrotation Zrotation
	End Site
	{
		OFFSET 0.000000 0.000000 0.000000
	}
}
MOTION
Frames: 84
Frame Time: 0.008333334
-3.394757 0.664482 4.642962 24.887930 -0.186585 -6.463531 
-3.394791 0.664401 4.643191 24.886180 -0.174957 -6.455048 
-3.394615 0.664615 4.643570 24.888930 -0.145630 -6.429504 
-3.394255 0.664549 4.643820 24.911180 -0.123383 -6.460571 
-3.393762 0.664503 4.643981 24.907900 -0.099182 -6.515625 
-3.392854 0.664122 4.644177 24.874090 -0.115814 -6.580566 
-3.392091 0.663728 4.644098 24.877660 -0.081543 -6.638947 
-3.391626 0.663622 4.644185 24.914860 -0.098724 -6.695648 
-3.391020 0.663533 4.643963 24.920110 -0.031708 -6.747162 
-3.390357 0.663285 4.643803 24.977100 -0.007751 -6.807739 
-3.390203 0.663417 4.643617 24.965630 -0.049011 -6.861206 
-3.389687 0.663587 4.643250 24.948630 -0.014984 -6.867035 
-3.389557 0.663544 4.643073 24.963370 -0.091095 -6.847534 
-3.389716 0.663518 4.642748 25.028980 -0.055481 -6.869659 
-3.389729 0.663611 4.642502 25.021320 -0.081055 -6.915649 
-3.389521 0.663366 4.641745 24.966610 -0.175232 -6.868988 
-3.389887 0.663136 4.641183 24.997830 -0.201386 -6.897827 
-3.389927 0.663036 4.640767 25.006930 -0.231293 -6.902802 
-3.390178 0.662885 4.640460 24.987260 -0.311523 -6.957336 
-3.390397 0.662481 4.640049 25.007000 -0.324158 -7.027649 
-3.390709 0.662459 4.639581 25.020360 -0.380127 -7.055389 
-3.391464 0.662382 4.639410 24.966710 -0.378784 -7.079437 
-3.391756 0.662360 4.639327 24.922110 -0.433411 -7.055725 
-3.392367 0.662478 4.639349 24.949820 -0.428680 -7.046143 
-3.393160 0.662218 4.639408 24.892530 -0.559845 -6.916626 
-3.394259 0.662544 4.639268 24.892390 -0.500275 -6.927582 
-3.395180 0.662389 4.639222 24.871700 -0.419220 -6.815338 
-3.396173 0.662411 4.639349 24.862770 -0.421967 -6.779419 
-3.397173 0.662615 4.639482 24.920850 -0.454254 -6.751678 
-3.397554 0.662704 4.639635 24.853410 -0.434570 -6.644745 
-3.398302 0.662584 4.639616 24.887220 -0.520660 -6.666199 
-3.398400 0.662404 4.639656 24.894480 -0.507599 -6.635406 
-3.398389 0.662270 4.639470 24.908060 -0.488922 -6.664001 
-3.397954 0.662324 4.639414 24.855250 -0.510498 -6.697205 
-3.397540 0.662222 4.639531 24.911210 -0.475159 -6.635254 
-3.396695 0.662260 4.639400 24.933160 -0.415009 -6.733612 
-3.395988 0.662271 4.639341 24.946900 -0.434876 -6.790802 
-3.395129 0.662341 4.639217 24.882020 -0.434570 -6.809265 
-3.394298 0.662349 4.639110 24.923680 -0.480499 -6.866425 
-3.393738 0.662438 4.639192 24.918940 -0.458221 -6.851654 
-3.393089 0.662577 4.639052 24.896200 -0.459961 -6.864105 
-3.392215 0.662267 4.639027 24.929160 -0.405396 -6.928101 
-3.391998 0.662324 4.639238 24.954240 -0.432922 -6.998077 
-3.391543 0.662471 4.639428 24.957830 -0.391296 -6.962402 
-3.391323 0.662147 4.639810 24.968810 -0.467133 -7.017853 
-3.391129 0.662548 4.639920 24.957010 -0.322540 -7.009369 
-3.391080 0.662527 4.640439 24.984900 -0.282318 -6.830688 
-3.391057 0.662454 4.641066 24.997860 -0.275909 -6.899567 
-3.391241 0.662558 4.641457 24.940360 -0.189148 -6.864868 
-3.391114 0.662473 4.641995 24.931030 -0.204346 -6.858002 
-3.391421 0.662314 4.642675 24.919890 -0.300781 -6.914825 
-3.391437 0.662537 4.642807 24.875200 -0.207611 -6.745361 
-3.391942 0.662808 4.643279 24.946690 -0.205597 -6.759399 
-3.392440 0.662814 4.643557 24.849510 -0.211304 -6.686371 
-3.392966 0.662388 4.644281 24.876580 -0.073303 -6.685577 
-3.393377 0.662447 4.644569 24.871940 -0.128754 -6.698395 
-3.394043 0.662502 4.644838 24.856080 -0.093872 -6.644257 
-3.394374 0.662720 4.644960 24.846870 -0.096924 -6.548492 
-3.394783 0.662631 4.645237 24.861060 -0.097107 -6.526245 
-3.395078 0.662816 4.645300 24.883690 -0.047638 -6.536591 
-3.395149 0.662878 4.645342 24.886330 -0.081726 -6.473663 
-3.395014 0.662672 4.645358 24.875510 -0.109802 -6.546692 
-3.395111 0.662680 4.645207 24.901440 -0.063965 -6.602142 
-3.394737 0.662659 4.645178 24.825510 -0.113220 -6.585022 
-3.394724 0.662687 4.645020 24.882280 -0.060699 -6.624481 
-3.394202 0.662467 4.644789 24.898130 -0.052216 -6.677795 
-3.393985 0.662557 4.644528 24.875580 -0.113953 -6.684021 
-3.393724 0.662985 4.643917 24.874070 -0.087555 -6.763428 
-3.393407 0.662668 4.643879 24.877730 -0.178711 -6.750122 
-3.392768 0.662465 4.643288 24.887850 -0.189789 -6.662415 
-3.392974 0.662839 4.642678 24.922660 -0.192627 -6.794647 
-3.392159 0.662050 4.642298 24.907510 -0.284546 -6.733673 
-3.392142 0.662196 4.641645 24.899920 -0.290314 -6.851044 
-3.392115 0.662264 4.641255 24.865190 -0.325501 -6.872833 
-3.392360 0.662023 4.640946 24.928500 -0.373901 -6.919128 
-3.392080 0.661850 4.640588 24.924880 -0.352753 -6.862854 
-3.392457 0.662173 4.640374 24.871980 -0.416809 -6.916321 
-3.392730 0.662466 4.640219 24.908860 -0.301209 -6.892761 
-3.392867 0.662207 4.640261 24.899860 -0.378967 -6.908142 
-3.393359 0.662105 4.640236 24.876730 -0.407227 -6.888336 
-3.393698 0.662117 4.640255 24.921620 -0.415863 -6.856384 
-3.394287 0.661886 4.640349 24.862480 -0.380432 -6.877563 
-3.394985 0.661836 4.640293 24.893310 -0.357178 -6.790863 
-3.395463 0.661891 4.640566 24.887130 -0.354675 -6.790924 
